<svg width="62" height="62" viewBox="0 0 62 62" fill="none" xmlns="http://www.w3.org/2000/svg">
<path d="M54.7005 24.9017C53.7874 23.9475 52.8429 22.9642 52.4869 22.0996C52.1575 21.3077 52.1381 19.995 52.1187 18.7235C52.0824 16.3598 52.0437 13.6812 50.1812 11.8187C48.3188 9.95633 45.6402 9.91758 43.2765 9.88125C42.005 9.86187 40.6923 9.8425 39.9004 9.51312C39.0382 9.15711 38.0525 8.21258 37.0983 7.29953C35.4272 5.69383 33.5284 3.875 31 3.875C28.4716 3.875 26.5752 5.69383 24.9017 7.29953C23.9475 8.21258 22.9642 9.15711 22.0996 9.51312C21.3125 9.8425 19.995 9.86187 18.7235 9.88125C16.3598 9.91758 13.6812 9.95633 11.8187 11.8187C9.95633 13.6812 9.92969 16.3598 9.88125 18.7235C9.86187 19.995 9.8425 21.3077 9.51312 22.0996C9.15711 22.9618 8.21258 23.9475 7.29953 24.9017C5.69383 26.5728 3.875 28.4716 3.875 31C3.875 33.5284 5.69383 35.4248 7.29953 37.0983C8.21258 38.0525 9.15711 39.0358 9.51312 39.9004C9.8425 40.6923 9.86187 42.005 9.88125 43.2765C9.91758 45.6402 9.95633 48.3188 11.8187 50.1812C13.6812 52.0437 16.3598 52.0824 18.7235 52.1187C19.995 52.1381 21.3077 52.1575 22.0996 52.4869C22.9618 52.8429 23.9475 53.7874 24.9017 54.7005C26.5728 56.3062 28.4716 58.125 31 58.125C33.5284 58.125 35.4248 56.3062 37.0983 54.7005C38.0525 53.7874 39.0358 52.8429 39.9004 52.4869C40.6923 52.1575 42.005 52.1381 43.2765 52.1187C45.6402 52.0824 48.3188 52.0437 50.1812 50.1812C52.0437 48.3188 52.0824 45.6402 52.1187 43.2765C52.1381 42.005 52.1575 40.6923 52.4869 39.9004C52.8429 39.0382 53.7874 38.0525 54.7005 37.0983C56.3062 35.4272 58.125 33.5284 58.125 31C58.125 28.4716 56.3062 26.5752 54.7005 24.9017ZM42.0583 26.5583L28.4958 40.1208C28.3158 40.3009 28.1022 40.4438 27.8669 40.5413C27.6317 40.6388 27.3796 40.689 27.125 40.689C26.8704 40.689 26.6183 40.6388 26.3831 40.5413C26.1478 40.4438 25.9342 40.3009 25.7542 40.1208L19.9417 34.3083C19.7617 34.1283 19.6189 33.9146 19.5215 33.6794C19.4241 33.4442 19.3739 33.1921 19.3739 32.9375C19.3739 32.6829 19.4241 32.4308 19.5215 32.1956C19.6189 31.9604 19.7617 31.7467 19.9417 31.5667C20.3053 31.2032 20.7984 30.9989 21.3125 30.9989C21.5671 30.9989 21.8192 31.0491 22.0544 31.1465C22.2896 31.2439 22.5033 31.3867 22.6833 31.5667L27.125 36.0109L39.3167 23.8167C39.4967 23.6367 39.7104 23.4939 39.9456 23.3965C40.1808 23.2991 40.4329 23.2489 40.6875 23.2489C40.9421 23.2489 41.1942 23.2991 41.4294 23.3965C41.6646 23.4939 41.8783 23.6367 42.0583 23.8167C42.2383 23.9967 42.3811 24.2104 42.4785 24.4456C42.5759 24.6808 42.6261 24.9329 42.6261 25.1875C42.6261 25.4421 42.5759 25.6942 42.4785 25.9294C42.3811 26.1646 42.2383 26.3783 42.0583 26.5583Z" fill="#FFD400"/>
</svg>
