<svg width="788" height="120" viewBox="0 0 788 120" fill="none" xmlns="http://www.w3.org/2000/svg">
<path d="M0.271999 95.04C0.741333 89.3653 1.25333 83.072 1.808 76.16C2.40533 69.248 3.00267 62.2293 3.6 55.104C3.64267 54.6773 3.68533 54.2507 3.728 53.824C3.77067 53.3973 3.81333 52.9707 3.856 52.544C3.89867 52.1173 3.94133 51.6907 3.984 51.264C4.02667 50.752 4.06933 50.2613 4.112 49.792C4.15467 49.28 4.19733 48.768 4.24 48.256C4.28267 47.744 4.32533 47.2533 4.368 46.784C4.45333 45.9733 4.51733 45.184 4.56 44.416C4.64533 43.6053 4.73067 42.7947 4.816 41.984C4.90133 41.2587 4.96533 40.5333 5.008 39.808C5.09333 39.0827 5.15733 38.3787 5.2 37.696C5.28533 36.928 5.34933 36.1813 5.392 35.456C5.47733 34.688 5.54133 33.9627 5.584 33.28C5.66933 32.768 5.73333 32.256 5.776 31.744C5.81867 31.232 5.86133 30.7413 5.904 30.272C6.24533 26.8587 7.184 24.3627 8.72 22.784C10.2987 21.2053 12.7307 19.9467 16.016 19.008C17.936 18.4533 20.2187 17.8773 22.864 17.28C25.552 16.6827 28.304 16.128 31.12 15.616C33.9787 15.0613 36.5813 14.6347 38.928 14.336C41.2747 13.9947 43.088 13.824 44.368 13.824C48.1227 13.824 50.8747 15.0187 52.624 17.408C54.3733 19.7547 55.248 22.8907 55.248 26.816C55.248 30.144 54.7147 33.216 53.648 36.032C52.624 38.848 51.1093 41.0027 49.104 42.496C47.0987 43.9467 44.6453 44.3093 41.744 43.584C42.64 40.2987 43.3867 37.3547 43.984 34.752C44.624 32.1493 44.7733 30.1013 44.432 28.608C44.0907 27.072 42.9173 26.304 40.912 26.304C39.0773 26.304 37.7973 27.5413 37.072 30.016C36.3467 32.4907 35.5147 36.5013 34.576 42.048C33.424 41.7067 32.3573 41.4293 31.376 41.216C30.3947 40.96 29.2853 40.6827 28.048 40.384C28.432 34.88 28.4533 31.168 28.112 29.248C27.8133 27.2853 26.7253 26.304 24.848 26.304C23.6533 26.304 22.7573 26.6667 22.16 27.392C21.5627 28.0747 21.1573 29.2693 20.944 30.976C20.7733 32.6827 20.7093 35.008 20.752 37.952C20.368 37.824 19.984 37.7387 19.6 37.696C19.216 37.6107 18.832 37.568 18.448 37.568C17.3813 37.568 16.592 37.8667 16.08 38.464C15.6107 39.0613 15.3333 39.9147 15.248 41.024C14.992 45.376 14.8213 49.7707 14.736 54.208C14.6507 58.6027 14.608 62.912 14.608 67.136C14.608 68.3307 15.0347 69.2053 15.888 69.76C16.784 70.3147 18.064 70.336 19.728 69.824C23.568 68.5867 26.9387 67.5413 29.84 66.688C32.7413 65.8347 34.9173 65.216 36.368 64.832C38.416 64.32 40.0373 64.6613 41.232 65.856C42.4267 67.0507 43.024 68.4587 43.024 70.08C43.024 71.1893 42.6827 72.256 42 73.28C41.3173 74.2613 40.208 74.944 38.672 75.328C38.1173 75.456 37.5413 75.6053 36.944 75.776C36.3893 75.904 35.8133 76.032 35.216 76.16C34.8747 76.2453 34.5333 76.3307 34.192 76.416C33.8507 76.5013 33.5093 76.5867 33.168 76.672C32.8693 76.7147 32.592 76.7787 32.336 76.864C32.08 76.9067 31.824 76.9707 31.568 77.056C31.1413 77.1413 30.736 77.248 30.352 77.376C29.968 77.4613 29.5627 77.5467 29.136 77.632C28.9653 77.6747 28.7733 77.7173 28.56 77.76C28.3893 77.8027 28.1973 77.8453 27.984 77.888C27.8133 77.9307 27.6213 77.9733 27.408 78.016C27.1947 78.0587 26.9813 78.1013 26.768 78.144C26.5973 78.1867 26.4053 78.2507 26.192 78.336C25.9787 78.3787 25.7653 78.4213 25.552 78.464C24.9547 78.592 24.3573 78.7413 23.76 78.912C23.2053 79.04 22.672 79.168 22.16 79.296C20.752 79.6373 19.856 80.128 19.472 80.768C19.1307 81.408 19.0453 82.24 19.216 83.264C19.4293 84.4587 19.7493 86.016 20.176 87.936C20.6027 89.8133 21.0933 91.456 21.648 92.864C22.1173 94.016 22.6933 94.72 23.376 94.976C24.0587 95.232 24.9333 95.168 26 94.784C28.816 93.6747 31.952 92.4587 35.408 91.136C38.9067 89.8133 41.744 88.896 43.92 88.384C46.5227 87.7867 48.4853 88.2773 49.808 89.856C51.1307 91.392 51.792 93.12 51.792 95.04C51.792 96.4907 51.4293 97.8133 50.704 99.008C49.9787 100.203 48.8693 100.928 47.376 101.184C42.128 102.08 36.304 102.955 29.904 103.808C23.504 104.619 17.2533 105.195 11.152 105.536C7.52533 105.707 4.73067 104.96 2.768 103.296C0.805333 101.632 -0.0266672 98.88 0.271999 95.04ZM23.312 96.32L31.632 96.064C31.888 97.3867 31.952 98.56 31.824 99.584C31.7387 100.565 31.4187 101.376 30.864 102.016C30.3093 102.613 29.4987 102.976 28.432 103.104C27.2373 103.275 26.2773 103.083 25.552 102.528C24.8267 101.973 24.2933 101.163 23.952 100.096C23.6107 98.9867 23.3973 97.728 23.312 96.32ZM37.904 97.088C37.8613 96.704 37.7973 96.32 37.712 95.936C37.6693 95.552 37.648 95.168 37.648 94.784C37.648 93.9307 37.904 93.184 38.416 92.544C38.9707 91.904 39.952 91.456 41.36 91.2C42.64 90.944 43.6853 90.944 44.496 91.2C45.3067 91.4133 45.7973 92.0107 45.968 92.992C46.0533 93.2907 46.1173 93.632 46.16 94.016C46.2453 94.3573 46.3093 94.6987 46.352 95.04C46.5653 96.1067 46.3947 97.0453 45.84 97.856C45.2853 98.624 44.304 99.1787 42.896 99.52C41.3173 99.8187 40.144 99.8187 39.376 99.52C38.608 99.1787 38.1173 98.368 37.904 97.088ZM26.896 59.456C24.6773 59.456 23.0347 58.9867 21.968 58.048C20.9013 57.1093 20.368 55.36 20.368 52.8C20.368 51.5627 20.9013 50.4107 21.968 49.344C23.0347 48.2347 24.336 47.68 25.872 47.68C28.048 47.68 29.6267 48.1707 30.608 49.152C31.632 50.1333 32.144 51.648 32.144 53.696C32.144 55.6587 31.6533 57.1093 30.672 58.048C29.6907 58.9867 28.432 59.456 26.896 59.456ZM29.2 20.416C29.2 19.904 29.4347 19.4347 29.904 19.008C30.416 18.5387 31.12 18.2827 32.016 18.24C32.7413 18.1547 33.424 18.24 34.064 18.496C34.7467 18.752 35.088 19.1787 35.088 19.776C35.088 19.9467 35.088 20.2027 35.088 20.544C35.088 20.8853 35.088 21.184 35.088 21.44C35.088 22.1227 34.8107 22.6773 34.256 23.104C33.7013 23.5307 33.04 23.7867 32.272 23.872C31.5893 23.9147 30.928 23.808 30.288 23.552C29.648 23.2533 29.2853 22.72 29.2 21.952C29.2 21.696 29.2 21.44 29.2 21.184C29.2 20.928 29.2 20.672 29.2 20.416ZM13.456 28.736L12.816 33.856C11.7493 33.728 10.96 33.4293 10.448 32.96C9.936 32.4907 9.70133 31.808 9.744 30.912C9.82933 29.888 10.2347 29.2693 10.96 29.056C11.6853 28.8427 12.5173 28.736 13.456 28.736Z" fill="black"/>
<path d="M86.827 103.872C82.6883 103.872 78.9977 103.232 75.755 101.952C72.5123 100.672 69.7603 99.008 67.499 96.96C65.2377 94.8693 63.5097 92.6507 62.315 90.304C61.163 87.9147 60.587 85.6533 60.587 83.52C60.587 82.0267 60.9497 80.9387 61.675 80.256C62.4003 79.5307 63.275 79.168 64.299 79.168C65.451 79.168 66.347 79.4667 66.987 80.064C67.627 80.6187 68.2243 81.6 68.779 83.008C69.3337 84.3307 70.1657 85.9307 71.275 87.808C72.427 89.6427 74.027 91.264 76.075 92.672C78.123 94.08 80.7683 94.784 84.011 94.784C86.7843 94.784 89.003 93.952 90.667 92.288C92.3737 90.5813 93.227 88.256 93.227 85.312C93.227 82.752 92.6937 80.5547 91.627 78.72C90.5603 76.8853 89.131 75.264 87.339 73.856C85.5897 72.4053 83.6483 70.9973 81.515 69.632C79.4243 68.2667 77.3123 66.7947 75.179 65.216C73.0883 63.5947 71.147 61.696 69.355 59.52C67.6057 57.344 66.1977 54.72 65.131 51.648C64.0643 48.576 63.531 44.864 63.531 40.512C63.531 35.392 64.5977 30.7627 66.731 26.624C68.907 22.4853 72.107 19.2 76.331 16.768C80.5977 14.336 85.8457 13.12 92.075 13.12C95.3603 13.12 98.283 13.44 100.843 14.08C103.403 14.72 105.579 15.5733 107.371 16.64C109.206 17.7067 110.592 18.88 111.531 20.16C112.47 21.44 112.939 22.72 112.939 24C112.939 25.408 112.619 26.5387 111.979 27.392C111.339 28.2027 110.336 28.608 108.971 28.608C107.776 28.608 106.667 28.288 105.643 27.648C104.619 27.008 103.488 26.2613 102.251 25.408C101.014 24.5547 99.4777 23.808 97.643 23.168C95.851 22.528 93.5257 22.208 90.667 22.208C85.6323 22.208 81.7923 23.488 79.147 26.048C76.5017 28.5653 75.179 31.7227 75.179 35.52C75.179 38.6773 75.947 41.216 77.483 43.136C79.019 45.056 81.067 46.6133 83.627 47.808C86.187 48.96 88.9817 50.0053 92.011 50.944C95.0403 51.84 98.0697 52.864 101.099 54.016C104.128 55.168 106.923 56.6613 109.483 58.496C112.043 60.3307 114.091 62.7627 115.627 65.792C117.163 68.7787 117.931 72.64 117.931 77.376C117.931 82.0693 117.078 86.1013 115.371 89.472C113.707 92.8 111.424 95.5307 108.523 97.664C105.622 99.7973 102.294 101.376 98.539 102.4C94.827 103.381 90.923 103.872 86.827 103.872ZM104.107 90.432C107.008 90.432 108.459 89.024 108.459 86.208C108.459 85.0987 108.118 84.224 107.435 83.584C106.752 82.944 105.771 82.624 104.491 82.624C103.168 82.624 102.187 82.9227 101.547 83.52C100.95 84.1173 100.651 85.0987 100.651 86.464C100.651 87.7867 100.992 88.7893 101.675 89.472C102.4 90.112 103.211 90.432 104.107 90.432ZM104.491 76.992C105.728 76.992 106.752 76.5867 107.563 75.776C108.416 74.9653 108.843 73.92 108.843 72.64C108.843 70.848 108.416 69.5253 107.563 68.672C106.752 67.8187 105.771 67.392 104.619 67.392C102.784 67.392 101.419 67.776 100.523 68.544C99.6697 69.2693 99.243 70.592 99.243 72.512C99.243 73.8347 99.691 74.9227 100.587 75.776C101.483 76.5867 102.784 76.992 104.491 76.992ZM92.843 67.264C94.251 67.264 95.2537 66.9013 95.851 66.176C96.491 65.408 96.811 64.3627 96.811 63.04C96.811 62.144 96.4697 61.376 95.787 60.736C95.1043 60.0533 94.2083 59.712 93.099 59.712C91.947 59.712 91.0083 60.0107 90.283 60.608C89.6003 61.2053 89.259 62.0587 89.259 63.168C89.259 64.448 89.5577 65.4507 90.155 66.176C90.795 66.9013 91.691 67.264 92.843 67.264ZM96.683 43.2C94.4643 43.2 92.779 42.6453 91.627 41.536C90.475 40.4267 89.899 39.104 89.899 37.568C89.899 35.52 90.411 33.8987 91.435 32.704C92.5017 31.5093 93.867 30.912 95.531 30.912C97.835 30.912 99.5203 31.4453 100.587 32.512C101.654 33.5787 102.187 34.7947 102.187 36.16C102.187 38.592 101.696 40.384 100.715 41.536C99.7763 42.6453 98.4323 43.2 96.683 43.2ZM98.987 97.6L104.363 93.888C107.307 97.7707 109.504 100.843 110.955 103.104C112.448 105.323 113.216 107.029 113.259 108.224C113.302 109.461 112.683 110.485 111.403 111.296C110.166 112.064 109.014 112.128 107.947 111.488C106.88 110.891 105.643 109.461 104.235 107.2C102.87 104.939 101.12 101.739 98.987 97.6ZM88.619 101.44L95.275 100.288C96.171 105.195 96.747 108.907 97.003 111.424C97.259 113.941 97.1523 115.669 96.683 116.608C96.2137 117.547 95.3603 118.123 94.123 118.336C92.6297 118.592 91.5417 118.272 90.859 117.376C90.1763 116.48 89.6857 114.752 89.387 112.192C89.131 109.675 88.875 106.091 88.619 101.44ZM76.587 99.392L82.987 101.824C81.8777 105.707 80.9177 108.715 80.107 110.848C79.2963 112.981 78.4217 114.368 77.483 115.008C76.587 115.648 75.435 115.691 74.027 115.136C72.7897 114.667 72.0857 113.835 71.915 112.64C71.787 111.488 72.1283 109.845 72.939 107.712C73.7497 105.579 74.9657 102.805 76.587 99.392ZM72.491 93.888C72.5763 93.8027 72.6403 93.7173 72.683 93.632C72.7683 93.504 72.8323 93.4187 72.875 93.376C73.259 92.864 73.835 92.6507 74.603 92.736C75.4137 92.7787 76.1603 93.0347 76.843 93.504C77.5683 93.888 78.1017 94.4 78.443 95.04C78.827 95.6373 78.8483 96.2347 78.507 96.832C78.4643 96.96 78.379 97.1093 78.251 97.28C78.123 97.4507 77.995 97.6 77.867 97.728C77.3977 98.368 76.843 98.7733 76.203 98.944C75.6057 99.1147 75.0083 99.0933 74.411 98.88C73.8137 98.6667 73.3017 98.3253 72.875 97.856C72.5337 97.5147 72.2563 97.1307 72.043 96.704C71.8723 96.2347 71.8083 95.7653 71.851 95.296C71.8937 94.8267 72.107 94.3573 72.491 93.888ZM67.755 89.152L71.979 95.68C69.035 98.496 66.667 100.629 64.875 102.08C63.1257 103.531 61.7177 104.32 60.651 104.448C59.5843 104.619 58.6243 104.171 57.771 103.104C56.9603 102.123 56.747 101.056 57.131 99.904C57.5577 98.752 58.6243 97.344 60.331 95.68C62.0803 93.9733 64.555 91.7973 67.755 89.152Z" fill="black"/>
<path d="M157.995 105.536C151.894 105.536 146.432 104.085 141.611 101.184C136.79 98.24 132.971 93.6747 130.155 87.488C127.382 81.2587 125.995 73.1947 125.995 63.296C125.995 52.8853 127.702 43.9253 131.115 36.416C134.528 28.9067 139.179 23.1253 145.067 19.072C150.955 15.0187 157.568 12.992 164.907 12.992C168.32 12.992 171.456 13.44 174.315 14.336C177.174 15.1893 179.456 16.384 181.163 17.92C182.87 19.456 183.723 21.184 183.723 23.104C183.723 24.512 183.339 25.536 182.571 26.176C181.846 26.7733 180.992 27.072 180.011 27.072C179.072 27.072 178.24 26.9227 177.515 26.624C176.79 26.2827 176.171 25.9627 175.659 25.664C175.403 25.4933 175.147 25.3653 174.891 25.28C174.678 25.152 174.443 25.024 174.187 24.896C173.974 24.768 173.76 24.6613 173.547 24.576C173.206 24.4053 172.864 24.256 172.523 24.128C172.182 23.9573 171.862 23.8293 171.563 23.744C171.264 23.616 170.944 23.5093 170.603 23.424C170.134 23.296 169.643 23.1893 169.131 23.104C168.662 22.976 168.192 22.8907 167.723 22.848C167.382 22.8053 166.998 22.784 166.571 22.784C166.187 22.784 165.782 22.784 165.355 22.784C164.928 22.7413 164.48 22.72 164.011 22.72C163.67 22.72 163.307 22.7413 162.923 22.784C162.582 22.784 162.219 22.8053 161.835 22.848C161.494 22.848 161.131 22.8693 160.747 22.912C155.926 23.5093 151.766 25.536 148.267 28.992C144.811 32.4053 142.144 36.736 140.267 41.984C138.432 47.1893 137.515 52.8427 137.515 58.944C137.515 61.9733 137.835 64.5973 138.475 66.816C139.158 69.0347 140.011 70.848 141.035 72.256C142.102 73.664 143.19 74.6453 144.299 75.2C144.811 75.456 145.216 75.648 145.515 75.776C145.856 75.8613 146.219 75.968 146.603 76.096C146.219 81.6 146.39 85.248 147.115 87.04C147.84 88.832 148.992 89.7067 150.571 89.664C151.808 89.5787 152.79 88.768 153.515 87.232C154.24 85.6533 154.667 82.2827 154.795 77.12C155.819 77.12 156.971 77.0133 158.251 76.8C159.574 76.5867 160.768 76.3947 161.835 76.224C161.707 81.3867 161.792 85.2053 162.091 87.68C162.432 90.112 162.944 91.6907 163.627 92.416C164.31 93.1413 165.163 93.504 166.187 93.504C167.424 93.504 168.363 93.0347 169.003 92.096C169.686 91.1147 170.027 89.2587 170.027 86.528C170.027 83.7973 169.643 79.7653 168.875 74.432C169.6 74.176 170.326 73.984 171.051 73.856C171.776 73.728 172.587 73.664 173.483 73.664C176.384 73.664 178.603 74.9653 180.139 77.568C181.675 80.128 182.443 83.0507 182.443 86.336C182.443 89.536 181.803 92.352 180.523 94.784C179.243 97.1733 177.472 99.1787 175.211 100.8C172.992 102.379 170.39 103.552 167.403 104.32C164.459 105.131 161.323 105.536 157.995 105.536ZM165.035 6.464C165.675 10.56 166.336 14.9973 167.019 19.776C167.702 24.5547 168.32 29.12 168.875 33.472C169.088 34.8373 169.067 36.0107 168.811 36.992C168.555 37.9307 168.064 38.656 167.339 39.168C166.656 39.68 165.718 39.936 164.523 39.936C163.2 39.936 162.176 39.4453 161.451 38.464C160.768 37.4827 160.214 36.16 159.787 34.496C158.891 30.4427 157.952 26.0693 156.971 21.376C156.032 16.6827 155.179 12.352 154.411 8.384C154.112 6.67733 154.112 5.248 154.411 4.09599C154.71 2.90133 155.307 2.00533 156.203 1.408C157.142 0.767998 158.379 0.447998 159.915 0.447998C161.195 0.447998 162.262 0.874664 163.115 1.728C164.011 2.58133 164.651 4.16 165.035 6.464ZM141.995 16.064C142.848 17.088 143.68 18.1333 144.491 19.2C145.344 20.2667 146.176 21.4827 146.987 22.848C147.755 24.0427 148.118 25.1947 148.075 26.304C148.075 27.4133 147.627 28.3947 146.731 29.248C145.707 30.3147 144.64 30.8053 143.531 30.72C142.422 30.6347 141.312 30.0587 140.203 28.992C138.88 27.712 137.707 26.5173 136.683 25.408C135.702 24.2987 134.827 23.232 134.059 22.208C132.48 20.032 131.563 18.2613 131.307 16.896C131.094 15.5307 131.627 14.272 132.907 13.12C134.059 12.0107 135.467 11.776 137.131 12.416C138.795 13.056 140.416 14.272 141.995 16.064ZM156.971 61.76C154.496 61.76 152.598 61.0987 151.275 59.776C149.952 58.4107 149.291 56.768 149.291 54.848C149.291 52.288 149.888 50.4107 151.083 49.216C152.278 48.0213 153.856 47.424 155.819 47.424C158.336 47.424 160.256 48.0853 161.579 49.408C162.944 50.688 163.627 52.4587 163.627 54.72C163.627 56.9387 163.051 58.6667 161.899 59.904C160.79 61.1413 159.147 61.76 156.971 61.76ZM175.787 95.936C175.872 96.064 175.936 96.1707 175.979 96.256C176.064 96.3413 176.128 96.448 176.171 96.576C176.683 97.3867 176.427 98.112 175.403 98.752C174.379 99.3493 173.419 99.648 172.523 99.648C172.224 99.648 171.926 99.6053 171.627 99.52C171.328 99.392 171.094 99.2213 170.923 99.008C170.795 98.7947 170.667 98.624 170.539 98.496C170.454 98.3253 170.368 98.1547 170.283 97.984L175.787 95.936ZM160.043 97.6C160.043 97.7707 160.064 97.9627 160.107 98.176C160.15 98.3467 160.171 98.5387 160.171 98.752C160.299 99.648 159.808 100.395 158.699 100.992C157.59 101.547 156.438 101.824 155.243 101.824C154.262 101.824 153.366 101.653 152.555 101.312C151.744 100.928 151.296 100.267 151.211 99.328C151.211 99.072 151.211 98.8373 151.211 98.624C151.211 98.368 151.211 98.112 151.211 97.856C151.168 96.832 151.638 96.064 152.619 95.552C153.643 95.04 154.624 94.784 155.563 94.784C156.63 94.784 157.611 94.9973 158.507 95.424C159.403 95.8507 159.915 96.576 160.043 97.6Z" fill="black"/>
<path d="M227.329 105.536C219.094 105.536 212.353 103.531 207.105 99.52C201.857 95.4667 197.974 89.8987 195.457 82.816C192.982 75.7333 191.745 67.6053 191.745 58.432C191.745 49.8133 193.174 42.0053 196.033 35.008C198.934 28.0107 203.137 22.4427 208.641 18.304C214.145 14.1653 220.844 12.096 228.737 12.096C233.558 12.096 238.081 12.9493 242.305 14.656C246.529 16.3627 250.262 19.008 253.505 22.592C256.79 26.1333 259.35 30.6773 261.185 36.224C263.02 41.7707 263.937 48.4053 263.937 56.128C263.937 65.6853 262.508 74.1973 259.649 81.664C256.833 89.088 252.694 94.9333 247.233 99.2C241.772 103.424 235.137 105.536 227.329 105.536ZM224.257 77.76C229.932 77.76 234.817 76.5013 238.913 73.984C243.052 71.424 246.23 67.9253 248.449 63.488C250.668 59.0507 251.777 53.952 251.777 48.192C251.777 42.3467 250.732 37.3973 248.641 33.344C246.55 29.2907 243.713 26.2187 240.129 24.128C236.588 21.9947 232.62 20.928 228.225 20.928C222.55 20.928 217.772 22.4853 213.889 25.6C210.006 28.672 207.062 32.7467 205.057 37.824C203.094 42.9013 202.113 48.4053 202.113 54.336C202.113 58.6453 202.86 62.5707 204.353 66.112C205.889 69.6533 208.278 72.4907 211.521 74.624C214.806 76.7147 219.052 77.76 224.257 77.76ZM245.761 78.656C244.353 78.656 243.244 79.0187 242.433 79.744C241.665 80.4693 241.281 81.7707 241.281 83.648C241.281 84.928 241.644 85.9307 242.369 86.656C243.094 87.3813 244.353 87.744 246.145 87.744C247.51 87.744 248.556 87.3387 249.281 86.528C250.006 85.7173 250.369 84.672 250.369 83.392C250.369 81.6427 250.006 80.4267 249.281 79.744C248.556 79.0187 247.382 78.656 245.761 78.656ZM231.937 84.544C230.273 84.544 228.908 85.0347 227.841 86.016C226.817 86.9973 226.305 88.4267 226.305 90.304C226.305 91.8827 226.753 93.2053 227.649 94.272C228.545 95.296 230.017 95.808 232.065 95.808C233.942 95.808 235.329 95.296 236.225 94.272C237.121 93.2053 237.569 92.0107 237.569 90.688C237.569 88.512 237.057 86.9547 236.033 86.016C235.052 85.0347 233.686 84.544 231.937 84.544ZM215.809 85.056C214.657 85.056 213.676 85.3973 212.865 86.08C212.097 86.7627 211.713 87.744 211.713 89.024C211.713 90.8587 212.118 92.1813 212.929 92.992C213.74 93.76 214.913 94.144 216.449 94.144C217.985 94.144 219.094 93.7813 219.777 93.056C220.46 92.3307 220.801 91.072 220.801 89.28C220.801 88.128 220.353 87.1467 219.457 86.336C218.561 85.4827 217.345 85.056 215.809 85.056ZM246.785 21.568C246.401 22.2507 246.017 22.976 245.633 23.744C245.249 24.4693 244.865 25.1947 244.481 25.92C242.518 29.504 240.812 32 239.361 33.408C237.91 34.7733 236.417 35.0507 234.881 34.24C233.814 33.6427 233.281 32.5973 233.281 31.104C233.281 29.568 233.942 27.4987 235.265 24.896C236.374 22.8907 237.185 21.4613 237.697 20.608C238.252 19.7547 238.721 19.008 239.105 18.368C239.702 17.3867 240.513 16.8533 241.537 16.768C242.561 16.6827 243.542 16.8747 244.481 17.344C245.377 17.7707 246.081 18.3893 246.593 19.2C247.105 20.0107 247.169 20.8 246.785 21.568ZM216.065 21.184C216.833 21.8667 217.622 22.5707 218.433 23.296C219.244 24.0213 220.033 24.8107 220.801 25.664C223.617 28.736 225.174 31.0827 225.473 32.704C225.814 34.2827 225.537 35.52 224.641 36.416C223.702 37.3547 222.444 37.6533 220.865 37.312C219.286 36.928 217.217 35.52 214.657 33.088C213.121 31.68 211.905 30.528 211.009 29.632C210.156 28.736 209.366 27.84 208.641 26.944C208.129 26.2187 208.044 25.3653 208.385 24.384C208.726 23.36 209.238 22.5067 209.921 21.824C210.689 20.9707 211.649 20.416 212.801 20.16C213.953 19.8613 215.041 20.2027 216.065 21.184ZM201.217 39.872C203.009 40.256 204.78 40.64 206.529 41.024C208.278 41.3653 210.049 41.792 211.841 42.304C216.193 43.4987 218.945 44.6293 220.097 45.696C221.249 46.72 221.654 47.936 221.313 49.344C221.014 50.7947 220.076 51.6693 218.497 51.968C216.918 52.224 214.102 52.0747 210.049 51.52C208.257 51.264 206.444 50.9867 204.609 50.688C202.774 50.3467 200.961 49.984 199.169 49.6C198.017 49.344 197.27 48.6187 196.929 47.424C196.588 46.2293 196.566 45.0347 196.865 43.84C197.121 42.6027 197.633 41.5787 198.401 40.768C199.212 39.9573 200.15 39.6587 201.217 39.872ZM199.553 66.112C200.022 65.7707 200.492 65.472 200.961 65.216C201.473 64.9173 201.942 64.6187 202.369 64.32C205.526 62.4 208.001 61.12 209.793 60.48C211.628 59.84 212.993 59.6267 213.889 59.84C214.828 60.0533 215.51 60.48 215.937 61.12C216.449 61.8453 216.62 62.6987 216.449 63.68C216.321 64.6187 215.532 65.7493 214.081 67.072C212.63 68.3947 210.22 69.952 206.849 71.744C206.294 72.0427 205.697 72.3627 205.057 72.704C204.46 73.0027 203.862 73.3227 203.265 73.664C202.241 74.176 201.281 74.2187 200.385 73.792C199.532 73.3227 198.87 72.64 198.401 71.744C197.974 70.848 197.804 69.8453 197.889 68.736C197.974 67.6267 198.529 66.752 199.553 66.112ZM257.153 37.184C257.793 37.056 258.348 37.3333 258.817 38.016C259.329 38.6987 259.713 39.5307 259.969 40.512C260.225 41.7067 260.289 42.8587 260.161 43.968C260.033 45.0773 259.585 45.6747 258.817 45.76C258.646 45.76 258.454 45.7813 258.241 45.824C258.07 45.8667 257.878 45.888 257.665 45.888C256.897 45.9307 256.257 45.5467 255.745 44.736C255.276 43.8827 254.934 42.944 254.721 41.92C254.593 40.8107 254.657 39.808 254.913 38.912C255.212 37.9733 255.745 37.44 256.513 37.312C256.641 37.312 256.748 37.2907 256.833 37.248C256.918 37.2053 257.025 37.184 257.153 37.184ZM254.849 67.008C255.062 67.264 255.254 67.4987 255.425 67.712C255.638 67.9253 255.83 68.16 256.001 68.416C256.47 68.9707 256.577 69.5467 256.321 70.144C256.108 70.7413 255.745 71.2747 255.233 71.744C254.721 72.128 254.166 72.384 253.569 72.512C252.972 72.5973 252.502 72.384 252.161 71.872C251.905 71.488 251.649 71.1253 251.393 70.784C251.137 70.4427 250.881 70.08 250.625 69.696C250.113 68.9707 249.964 68.3093 250.177 67.712C250.39 67.1147 250.753 66.6667 251.265 66.368C251.777 66.0267 252.374 65.8987 253.057 65.984C253.74 66.0267 254.337 66.368 254.849 67.008Z" fill="black"/>
<path d="M290.76 106.816C286.664 106.987 283.656 105.877 281.736 103.488C279.816 101.099 278.856 97.408 278.856 92.416C278.856 90.3253 278.92 87.616 279.048 84.288C279.176 80.9173 279.325 77.1627 279.496 73.024C279.709 68.8853 279.944 64.576 280.2 60.096C280.456 55.616 280.712 51.1787 280.968 46.784C281.267 42.3467 281.544 38.208 281.8 34.368C282.099 30.4853 282.355 27.1147 282.568 24.256C282.952 19.264 284.275 15.7227 286.536 13.632C288.84 11.4987 291.912 10.432 295.752 10.432C299.037 10.432 301.768 11.1147 303.944 12.48C306.163 13.8027 307.571 15.9787 308.168 19.008C308.808 22.0373 308.381 26.048 306.888 31.04C305.437 35.8187 303.923 40.6187 302.344 45.44C300.765 50.2613 299.165 55.0187 297.544 59.712C297.288 60.352 297.053 60.992 296.84 61.632C296.669 62.272 296.477 62.912 296.264 63.552C296.093 64.192 295.88 64.832 295.624 65.472C295.411 66.112 295.197 66.752 294.984 67.392C294.685 68.4587 294.344 69.5467 293.96 70.656C293.619 71.7227 293.277 72.8107 292.936 73.92C292.765 74.3893 292.595 74.8587 292.424 75.328C292.296 75.7973 292.147 76.2667 291.976 76.736C291.848 77.1627 291.699 77.5893 291.528 78.016C291.4 78.4 291.272 78.784 291.144 79.168C291.059 79.552 290.952 79.936 290.824 80.32C290.739 80.704 290.632 81.088 290.504 81.472C290.333 82.1547 290.12 82.88 289.864 83.648C289.651 84.3733 289.437 85.0987 289.224 85.824C288.712 87.616 288.712 88.9387 289.224 89.792C289.779 90.6453 290.632 91.072 291.784 91.072C292.68 91.072 294.173 90.4747 296.264 89.28C298.397 88.0853 300.851 86.6987 303.624 85.12C306.44 83.5413 309.341 82.1547 312.328 80.96C315.357 79.7653 318.195 79.168 320.84 79.168C322.589 79.168 324.381 79.5733 326.216 80.384C328.051 81.152 329.587 82.496 330.824 84.416C332.104 86.2933 332.744 88.896 332.744 92.224C332.744 96.448 331.955 99.5413 330.376 101.504C328.797 103.424 326.216 104.384 322.632 104.384C322.376 104.384 322.12 104.384 321.864 104.384C321.651 104.384 321.437 104.384 321.224 104.384C321.523 100.288 321.544 97.152 321.288 94.976C321.032 92.8 320.563 91.3067 319.88 90.496C319.197 89.6853 318.365 89.28 317.384 89.28C316.275 89.28 315.421 89.728 314.824 90.624C314.227 91.52 313.843 93.12 313.672 95.424C313.544 97.728 313.587 100.971 313.8 105.152C312.605 105.28 311.368 105.387 310.088 105.472C308.808 105.6 307.528 105.707 306.248 105.792C306.077 102.635 305.779 100.245 305.352 98.624C304.925 96.96 304.349 95.8507 303.624 95.296C302.941 94.6987 302.109 94.4 301.128 94.4C299.976 94.4 299.08 94.8267 298.44 95.68C297.8 96.4907 297.459 97.792 297.416 99.584C297.373 101.333 297.672 103.616 298.312 106.432C297.032 106.475 295.773 106.517 294.536 106.56C293.299 106.645 292.04 106.731 290.76 106.816ZM282.056 57.28C278.685 57.1947 276.04 57.0453 274.12 56.832C272.243 56.576 270.92 56.1067 270.152 55.424C269.384 54.7413 269 53.7387 269 52.416C269 50.0693 270.045 48.64 272.136 48.128C274.269 47.616 278.088 47.6587 283.592 48.256L282.056 57.28ZM298.44 47.168L298.952 36.544C305.096 36.6293 309.64 36.8427 312.584 37.184C315.571 37.4827 317.512 38.016 318.408 38.784C319.347 39.5093 319.816 40.5547 319.816 41.92C319.816 43.584 319.325 44.8213 318.344 45.632C317.405 46.4 315.4 46.8907 312.328 47.104C309.299 47.2747 304.669 47.296 298.44 47.168ZM295.112 31.168C297.16 31.168 298.696 30.6773 299.72 29.696C300.744 28.7147 301.256 27.3707 301.256 25.664C301.256 23.488 300.723 21.9093 299.656 20.928C298.589 19.904 297.032 19.392 294.984 19.392C293.32 19.392 291.976 19.9467 290.952 21.056C289.971 22.1653 289.48 23.616 289.48 25.408C289.48 27.1147 289.928 28.5013 290.824 29.568C291.763 30.6347 293.192 31.168 295.112 31.168ZM288.84 51.776L288.968 43.584C289.992 43.584 290.803 43.6907 291.4 43.904C292.04 44.1173 292.488 44.544 292.744 45.184C293.043 45.7813 293.192 46.656 293.192 47.808C293.192 49.472 292.808 50.56 292.04 51.072C291.272 51.5413 290.205 51.776 288.84 51.776ZM329.928 98.368L322.632 96.32C323.016 95.04 323.379 93.9733 323.72 93.12C324.061 92.2667 324.531 91.6907 325.128 91.392C325.768 91.0933 326.685 91.1147 327.88 91.456C328.947 91.712 329.693 92.1387 330.12 92.736C330.547 93.2907 330.717 94.0373 330.632 94.976C330.589 95.9147 330.355 97.0453 329.928 98.368Z" fill="black"/>
<path d="M338.191 91.456C338.788 89.792 339.812 86.976 341.263 83.008C342.714 78.9973 344.378 74.4107 346.255 69.248C348.132 64.0427 350.01 58.8587 351.887 53.696C352.058 53.312 352.207 52.928 352.335 52.544C352.463 52.16 352.591 51.7973 352.719 51.456C352.847 51.072 352.975 50.688 353.103 50.304C353.316 49.792 353.508 49.28 353.679 48.768C353.892 48.2133 354.084 47.68 354.255 47.168C354.767 45.8027 355.258 44.48 355.727 43.2C356.196 41.8773 356.644 40.6187 357.071 39.424C357.242 39.04 357.391 38.6773 357.519 38.336C357.647 37.952 357.775 37.5893 357.903 37.248C358.031 36.864 358.159 36.5013 358.287 36.16C358.5 35.52 358.714 34.9227 358.927 34.368C359.183 33.7707 359.396 33.1947 359.567 32.64C360.25 30.848 360.783 29.4187 361.167 28.352C361.594 27.2427 361.828 26.6027 361.871 26.432C363.236 22.8907 365.284 20.2667 368.015 18.56C370.746 16.8107 373.86 15.9787 377.359 16.064C381.028 16.1067 384.186 17.0667 386.831 18.944C389.476 20.8213 391.14 23.6587 391.823 27.456C391.908 27.968 391.994 28.48 392.079 28.992C392.207 29.504 392.292 30.016 392.335 30.528C387.215 31.04 383.759 31.7227 381.967 32.576C380.175 33.3867 379.279 34.5387 379.279 36.032C379.279 37.8667 379.898 39.0613 381.135 39.616C382.415 40.128 384.143 40.256 386.319 40C388.538 39.744 391.055 39.36 393.871 38.848C394.127 40.128 394.383 41.408 394.639 42.688C394.895 43.968 395.108 45.248 395.279 46.528C391.311 47.04 388.516 47.7013 386.895 48.512C385.316 49.3227 384.527 50.5387 384.527 52.16C384.527 54.0373 385.146 55.232 386.383 55.744C387.62 56.256 389.178 56.384 391.055 56.128C392.932 55.8293 394.852 55.4027 396.815 54.848C397.668 59.1147 398.5 63.3813 399.311 67.648C400.122 71.9147 400.911 76.16 401.679 80.384C402.447 84.608 403.215 88.832 403.983 93.056C404.751 97.2373 405.476 101.397 406.159 105.536C406.628 107.883 406.372 109.696 405.391 110.976C404.41 112.299 403.215 112.96 401.807 112.96C400.74 112.96 399.652 112.555 398.543 111.744C397.434 110.933 396.559 109.675 395.919 107.968C392.463 98.4107 389.028 88.5547 385.615 78.4C382.202 68.2027 378.852 58.56 375.567 49.472C374.671 46.9547 373.775 45.1413 372.879 44.032C372.026 42.88 370.831 42.304 369.295 42.304C367.844 42.304 366.628 42.816 365.647 43.84C364.708 44.864 363.876 46.784 363.151 49.6C361.188 57.1947 359.247 64.9173 357.327 72.768C355.407 80.6187 353.508 88.1707 351.631 95.424C350.991 97.7707 349.988 99.4773 348.623 100.544C347.258 101.568 345.828 102.08 344.335 102.08C341.604 102.08 339.642 101.056 338.447 99.008C337.252 96.9173 337.167 94.4 338.191 91.456ZM351.119 71.872L353.551 63.808C355.556 63.7227 357.519 63.68 359.439 63.68C361.402 63.68 363.364 63.7227 365.327 63.808C368.271 63.936 370.468 64.2987 371.919 64.896C373.412 65.4933 374.159 66.752 374.159 68.672C374.159 70.5067 373.519 71.7653 372.239 72.448C370.959 73.088 368.484 73.3227 364.815 73.152C362.511 73.024 360.207 72.8533 357.903 72.64C355.642 72.384 353.38 72.128 351.119 71.872ZM352.399 88.384C350.436 88.128 348.858 87.5947 347.663 86.784C346.468 85.9733 345.871 84.928 345.871 83.648C345.871 81.6427 346.639 80.384 348.175 79.872C349.754 79.36 351.631 79.2107 353.807 79.424C359.396 79.8507 365.242 80.3627 371.343 80.96C377.487 81.5147 383.588 82.112 389.647 82.752L392.207 92.48C385.039 91.84 378.042 91.1787 371.215 90.496C364.431 89.7707 358.159 89.0667 352.399 88.384ZM356.495 44.992C353.636 43.7973 351.332 42.752 349.583 41.856C347.876 40.9173 346.639 40.0213 345.871 39.168C345.103 38.3147 344.719 37.3973 344.719 36.416C344.719 34.4107 345.444 33.1947 346.895 32.768C348.346 32.2987 350.244 32.384 352.591 33.024C354.98 33.6213 357.498 34.496 360.143 35.648L356.495 44.992ZM352.015 59.84C348.644 58.9013 345.956 58.0693 343.951 57.344C341.988 56.6187 340.58 55.8933 339.727 55.168C338.874 54.4 338.447 53.5253 338.447 52.544C338.447 50.496 339.172 49.2587 340.623 48.832C342.074 48.3627 343.994 48.4267 346.383 49.024C348.815 49.5787 351.46 50.368 354.319 51.392L352.015 59.84ZM387.983 72.512L386.063 62.912C388.239 62.528 389.988 62.3573 391.311 62.4C392.676 62.4 393.658 62.8693 394.255 63.808C394.852 64.704 395.151 66.2827 395.151 68.544C395.151 70.1227 394.554 71.1253 393.359 71.552C392.164 71.9787 390.372 72.2987 387.983 72.512ZM392.591 92.992L390.671 82.752C392.89 82.2827 394.66 82.0907 395.983 82.176C397.306 82.2613 398.266 82.816 398.863 83.84C399.46 84.864 399.759 86.5493 399.759 88.896C399.759 90.6027 399.162 91.6907 397.967 92.16C396.772 92.5867 394.98 92.864 392.591 92.992Z" fill="black"/>
<path d="M441.134 103.616C436.313 103.616 432.153 102.912 428.654 101.504C425.155 100.096 422.275 98.3253 420.014 96.192C417.753 94.016 416.067 91.776 414.958 89.472C413.891 87.168 413.358 85.1413 413.358 83.392C413.358 82.24 413.721 81.28 414.446 80.512C415.214 79.7013 416.302 79.296 417.71 79.296C418.691 79.296 419.545 79.6373 420.27 80.32C421.038 81.0027 421.678 81.856 422.19 82.88C423.001 84.4587 424.195 86.1867 425.774 88.064C427.353 89.9413 429.422 91.5627 431.982 92.928C434.585 94.2507 437.806 94.912 441.646 94.912C446.467 94.912 450.073 93.7387 452.462 91.392C454.894 89.0027 456.11 85.8667 456.11 81.984C456.11 79.168 455.385 76.928 453.934 75.264C452.526 73.5573 450.649 72.1707 448.302 71.104C445.998 69.9947 443.438 68.9707 440.622 68.032C437.849 67.0507 435.054 65.92 432.238 64.64C429.465 63.36 426.905 61.7173 424.558 59.712C422.254 57.664 420.377 55.0187 418.926 51.776C417.518 48.4907 416.814 44.352 416.814 39.36C416.814 34.0693 418.03 29.4187 420.462 25.408C422.937 21.3547 426.393 18.1973 430.83 15.936C435.267 13.632 440.451 12.48 446.382 12.48C449.369 12.48 452.185 12.7573 454.83 13.312C457.518 13.824 459.886 14.656 461.934 15.808C464.025 16.96 465.667 18.4747 466.862 20.352C468.057 22.1867 468.654 24.4267 468.654 27.072C468.654 29.8027 467.95 32.128 466.542 34.048C465.134 35.968 462.979 36.928 460.078 36.928C459.182 36.928 458.286 36.9067 457.39 36.864C456.494 36.7787 455.555 36.6933 454.574 36.608C453.635 36.5227 452.611 36.4587 451.502 36.416C450.393 36.3307 449.155 36.288 447.79 36.288C443.95 36.288 441.113 37.2267 439.278 39.104C437.443 40.9387 436.526 43.2 436.526 45.888C436.526 48.1067 437.081 49.9413 438.19 51.392C439.342 52.8 440.835 54.016 442.67 55.04C444.547 56.0213 446.595 56.9813 448.814 57.92C451.033 58.816 453.251 59.8187 455.47 60.928C457.689 61.9947 459.715 63.36 461.55 65.024C463.427 66.6453 464.921 68.6933 466.03 71.168C467.182 73.6 467.758 76.6507 467.758 80.32C467.758 83.8187 467.161 86.9973 465.966 89.856C464.771 92.7147 463.022 95.168 460.718 97.216C458.457 99.264 455.662 100.843 452.334 101.952C449.049 103.061 445.315 103.616 441.134 103.616ZM428.078 41.408C430.553 41.408 431.79 40.0853 431.79 37.44C431.79 36.288 431.449 35.3707 430.766 34.688C430.126 33.9627 429.358 33.6 428.462 33.6C426.883 33.6 425.731 33.9627 425.006 34.688C424.323 35.3707 423.982 36.16 423.982 37.056C423.982 38.592 424.345 39.7013 425.07 40.384C425.795 41.0667 426.798 41.408 428.078 41.408ZM436.782 30.784C438.147 30.784 439.214 30.3787 439.982 29.568C440.75 28.7147 441.134 27.712 441.134 26.56C441.134 24.8107 440.686 23.488 439.79 22.592C438.894 21.6533 437.806 21.184 436.526 21.184C434.819 21.184 433.561 21.5893 432.75 22.4C431.939 23.168 431.534 24.512 431.534 26.432C431.534 27.8827 432.003 28.9707 432.942 29.696C433.923 30.4213 435.203 30.784 436.782 30.784ZM449.582 28.352C450.947 28.352 452.035 27.9467 452.846 27.136C453.657 26.3253 454.062 25.1947 454.062 23.744C454.062 22.336 453.699 21.3333 452.974 20.736C452.249 20.096 451.374 19.776 450.35 19.776C448.771 19.776 447.555 20.1387 446.702 20.864C445.891 21.5893 445.486 22.592 445.486 23.872C445.486 25.1947 445.891 26.2827 446.702 27.136C447.555 27.9467 448.515 28.352 449.582 28.352ZM462.766 28.096C461.699 28.096 460.825 27.776 460.142 27.136C459.502 26.4533 459.182 25.7067 459.182 24.896C459.182 23.7867 459.481 22.9547 460.078 22.4C460.675 21.8453 461.358 21.568 462.126 21.568C463.406 21.568 464.323 21.824 464.878 22.336C465.433 22.848 465.71 23.7867 465.71 25.152C465.71 26.048 465.411 26.7733 464.814 27.328C464.217 27.84 463.534 28.096 462.766 28.096ZM458.03 88.128L461.998 82.752C463.15 83.392 464.046 84.0533 464.686 84.736C465.326 85.376 465.667 86.0587 465.71 86.784C465.795 87.5093 465.539 88.2987 464.942 89.152C464.259 90.0907 463.555 90.6453 462.83 90.816C462.105 90.944 461.337 90.7733 460.526 90.304C459.758 89.792 458.926 89.0667 458.03 88.128ZM453.55 95.808L458.926 91.84C463.065 95.9787 466.051 99.2427 467.886 101.632C469.763 104.021 470.809 105.835 471.022 107.072C471.235 108.352 470.958 109.333 470.19 110.016C469.038 110.997 467.822 111.275 466.542 110.848C465.305 110.464 463.683 109.077 461.678 106.688C459.673 104.341 456.963 100.715 453.55 95.808ZM439.854 98.624L448.814 97.728C449.155 104.341 449.305 109.227 449.262 112.384C449.219 115.541 448.921 117.589 448.366 118.528C447.811 119.509 446.937 120 445.742 120C444.462 120.043 443.481 119.573 442.798 118.592C442.115 117.653 441.561 115.648 441.134 112.576C440.75 109.547 440.323 104.896 439.854 98.624ZM424.622 101.056C425.603 98.7947 426.649 96.576 427.758 94.4C428.867 92.1813 429.955 89.9627 431.022 87.744C433.07 83.52 434.819 81.024 436.27 80.256C437.763 79.4453 439.043 79.296 440.11 79.808C441.134 80.32 441.731 81.408 441.902 83.072C442.073 84.6933 441.091 87.6587 438.958 91.968C437.891 94.144 436.761 96.3413 435.566 98.56C434.371 100.779 433.155 102.976 431.918 105.152C430.083 108.395 428.569 110.933 427.374 112.768C426.179 114.603 425.134 115.819 424.238 116.416C423.342 117.013 422.403 117.056 421.422 116.544C420.611 116.117 420.185 115.349 420.142 114.24C420.099 113.173 420.441 111.573 421.166 109.44C421.934 107.349 423.086 104.555 424.622 101.056ZM421.55 88.384L423.982 94.784C420.526 96.832 417.753 98.2613 415.662 99.072C413.614 99.8827 412.057 100.203 410.99 100.032C409.923 99.8613 409.177 99.3067 408.75 98.368C408.323 97.4293 408.387 96.5333 408.942 95.68C409.539 94.784 410.819 93.7813 412.782 92.672C414.787 91.52 417.71 90.0907 421.55 88.384Z" fill="black"/>
<path d="M475.566 93.376C475.694 92.9493 475.801 92.5227 475.886 92.096C476.014 91.6693 476.121 91.2427 476.206 90.816C476.334 90.3893 476.462 89.9627 476.59 89.536C479.363 90.2613 481.838 90.816 484.014 91.2C486.233 91.5413 487.982 91.4987 489.262 91.072C490.542 90.6453 491.182 89.5787 491.182 87.872C491.182 86.592 490.329 85.5467 488.622 84.736C486.958 83.9253 483.587 83.0507 478.51 82.112C478.851 80.96 479.171 79.7867 479.47 78.592C479.811 77.3973 480.131 76.224 480.43 75.072C483.289 75.7547 485.721 76.2453 487.726 76.544C489.774 76.8427 491.331 76.7573 492.398 76.288C493.465 75.776 493.998 74.6453 493.998 72.896C493.998 71.4027 493.123 70.2933 491.374 69.568C489.667 68.8 486.702 68.16 482.478 67.648C484.227 61.2907 485.998 54.8907 487.79 48.448C489.582 42.0053 491.395 35.5627 493.23 29.12C494.723 24 496.793 20.5227 499.438 18.688C502.083 16.8533 505.283 15.9787 509.038 16.064C513.518 16.1067 516.825 17.408 518.958 19.968C521.091 22.528 522.755 26.0907 523.95 30.656C524.035 30.9973 524.142 31.4027 524.27 31.872C524.398 32.2987 524.526 32.768 524.654 33.28C524.825 33.8347 524.995 34.4747 525.166 35.2C525.379 35.8827 525.571 36.608 525.742 37.376C525.87 37.8027 525.998 38.2507 526.126 38.72C526.254 39.1467 526.361 39.5947 526.446 40.064C526.574 40.4907 526.702 40.9387 526.83 41.408C527.043 42.2187 527.257 43.072 527.47 43.968C527.726 44.864 527.982 45.7813 528.238 46.72C528.451 47.5733 528.665 48.448 528.878 49.344C529.134 50.1973 529.39 51.072 529.646 51.968C529.774 52.3947 529.881 52.8427 529.966 53.312C530.094 53.7387 530.222 54.1653 530.35 54.592C530.478 55.0187 530.585 55.4667 530.67 55.936C531.651 59.648 532.654 63.424 533.678 67.264C534.702 71.0613 535.662 74.7093 536.558 78.208C537.497 81.7067 538.329 84.864 539.054 87.68C539.822 90.4533 540.419 92.6933 540.846 94.4C541.571 97.088 541.401 99.2 540.334 100.736C539.31 102.229 537.731 102.976 535.598 102.976C534.062 102.976 532.782 102.485 531.758 101.504C530.734 100.523 529.966 99.008 529.454 96.96C526.979 87.4027 524.59 77.5253 522.286 67.328C520.025 57.1307 517.635 47.04 515.118 37.056C514.606 35.008 514.009 33.5573 513.326 32.704C512.643 31.8507 511.662 31.424 510.382 31.424C509.059 31.424 507.993 31.8933 507.182 32.832C506.414 33.7707 505.902 35.3067 505.646 37.44C504.494 47.424 503.385 57.536 502.318 67.776C501.251 77.9733 500.099 87.7867 498.862 97.216C498.35 101.184 496.921 104.107 494.574 105.984C492.227 107.904 489.646 108.864 486.83 108.864C482.478 108.864 479.214 107.371 477.038 104.384C474.905 101.44 474.414 97.7707 475.566 93.376ZM500.142 80.704L500.782 70.976C505.006 70.592 509.166 70.272 513.262 70.016C517.401 69.7173 521.518 69.44 525.614 69.184C528.387 68.9707 530.222 69.4187 531.118 70.528C532.057 71.5947 532.526 72.768 532.526 74.048C532.526 75.1147 532.142 76.096 531.374 76.992C530.606 77.8453 528.942 78.4 526.382 78.656C521.987 79.0827 517.593 79.4667 513.198 79.808C508.803 80.1493 504.451 80.448 500.142 80.704ZM533.806 88.512C532.867 88.384 532.121 87.9573 531.566 87.232C531.011 86.5067 530.734 85.696 530.734 84.8C530.734 83.904 531.011 83.0933 531.566 82.368C532.163 81.6 533.038 81.216 534.19 81.216C534.403 81.216 534.595 81.216 534.766 81.216C534.979 81.216 535.171 81.216 535.342 81.216L537.006 88.768C536.494 88.768 535.939 88.7467 535.342 88.704C534.787 88.6187 534.275 88.5547 533.806 88.512ZM482.99 103.744C482.094 103.317 481.454 102.869 481.07 102.4C480.729 101.888 480.537 101.333 480.494 100.736C480.451 100.096 480.43 99.392 480.43 98.624C480.43 97.1307 480.707 96.0427 481.262 95.36C481.859 94.6347 482.627 94.2293 483.566 94.144C484.505 94.016 485.55 94.1013 486.702 94.4L482.99 103.744ZM484.142 104.384C482.777 104.171 481.731 103.893 481.006 103.552C480.281 103.211 479.79 102.677 479.534 101.952C479.278 101.184 479.15 100.117 479.15 98.752C479.15 97.4293 479.513 96.512 480.238 96C480.963 95.4453 481.902 95.168 483.054 95.168C484.206 95.168 485.422 95.296 486.702 95.552L484.142 104.384ZM527.406 49.856L524.59 41.408C527.619 40.512 530.35 39.808 532.782 39.296C535.214 38.7413 537.134 38.6987 538.542 39.168C539.993 39.5947 540.718 40.8533 540.718 42.944C540.718 44.3947 539.737 45.632 537.774 46.656C535.811 47.68 532.355 48.7467 527.406 49.856ZM530.094 65.472L528.814 56.896C531.801 56.256 534.318 55.8293 536.366 55.616C538.414 55.36 539.971 55.552 541.038 56.192C542.105 56.832 542.638 58.1333 542.638 60.096C542.638 61.888 541.699 63.1253 539.822 63.808C537.945 64.448 534.702 65.0027 530.094 65.472Z" fill="black"/>
<path d="M549.477 91.2C549.861 88.0853 550.416 83.5413 551.141 77.568C551.909 71.552 552.741 65.1733 553.637 58.432C553.722 57.92 553.786 57.4293 553.829 56.96C553.914 56.448 553.978 55.936 554.021 55.424C554.106 54.912 554.17 54.4 554.213 53.888C554.298 53.1627 554.384 52.4587 554.469 51.776C554.597 51.0933 554.704 50.4107 554.789 49.728C554.874 48.832 554.981 47.9573 555.109 47.104C555.237 46.208 555.365 45.3333 555.493 44.48C555.621 43.5413 555.728 42.624 555.813 41.728C555.941 40.832 556.069 39.9573 556.197 39.104C556.325 38.2507 556.453 37.3973 556.581 36.544C556.709 35.6907 556.816 34.8587 556.901 34.048C557.285 31.232 557.626 28.672 557.925 26.368C558.266 24.064 558.565 22.1227 558.821 20.544C559.418 16.832 560.57 14.1227 562.277 12.416C564.026 10.6667 566.245 9.79199 568.933 9.79199C571.706 9.79199 573.882 10.752 575.461 12.672C577.082 14.5493 578.362 17.2587 579.301 20.8C579.429 21.184 579.557 21.5893 579.685 22.016C579.813 22.4 579.898 22.7627 579.941 23.104C574.65 24.0427 571.088 25.0453 569.253 26.112C567.461 27.1787 566.714 28.6507 567.013 30.528C567.354 32.448 568.762 33.3653 571.237 33.28C573.712 33.152 577.381 32.448 582.245 31.168C582.629 32.3627 582.992 33.6427 583.333 35.008C583.674 36.3307 583.994 37.696 584.293 39.104C577.893 39.872 573.392 40.7467 570.789 41.728C568.186 42.6667 567.013 44.1387 567.269 46.144C567.61 48.32 569.21 49.3867 572.069 49.344C574.97 49.2587 579.642 48.192 586.085 46.144C587.194 50.7093 588.261 55.232 589.285 59.712C590.309 64.1493 591.376 68.288 592.485 72.128C593.125 74.2613 594.064 75.328 595.301 75.328C596.666 75.328 597.605 74.2187 598.117 72C599.098 67.904 600.122 63.296 601.189 58.176C602.256 53.056 603.322 47.8507 604.389 42.56C605.498 37.2693 606.565 32.32 607.589 27.712C608.741 22.464 610.384 18.8373 612.517 16.832C614.65 14.784 617.317 13.76 620.517 13.76C623.845 13.76 626.362 14.8693 628.069 17.088C629.818 19.3067 630.97 22.6347 631.525 27.072C632.848 37.4827 634.085 48.5547 635.237 60.288C636.432 71.9787 637.498 83.6907 638.437 95.424C638.693 98.5387 638.224 100.949 637.029 102.656C635.877 104.32 634.085 105.152 631.653 105.152C629.221 105.152 627.429 104.363 626.277 102.784C625.125 101.163 624.528 98.88 624.485 95.936C624.4 89.9627 624.442 84.3947 624.613 79.232C624.784 74.0267 624.784 68.7147 624.613 63.296C624.528 60.0107 623.525 58.1547 621.605 57.728C619.728 57.3013 618 58.304 616.421 60.736C614.16 64.2347 611.962 67.84 609.829 71.552C607.738 75.264 605.37 79.1253 602.725 83.136C601.786 84.544 600.656 85.6533 599.333 86.464C598.053 87.232 596.538 87.616 594.789 87.616C593.082 87.616 591.546 87.1467 590.181 86.208C588.816 85.2693 587.493 83.9893 586.213 82.368C583.397 78.7413 580.73 75.136 578.213 71.552C575.696 67.9253 573.413 64.8747 571.365 62.4C569.573 60.224 567.845 59.3493 566.181 59.776C564.517 60.16 563.642 61.76 563.557 64.576C563.472 67.0933 563.365 69.9307 563.237 73.088C563.152 76.2453 563.024 79.5093 562.853 82.88C562.725 86.208 562.576 89.4507 562.405 92.608C562.277 95.424 561.68 97.5573 560.613 99.008C559.546 100.459 557.882 101.184 555.621 101.184C554 101.184 552.698 100.821 551.717 100.096C550.736 99.328 550.053 98.1973 549.669 96.704C549.285 95.2107 549.221 93.376 549.477 91.2ZM618.597 46.016C621.37 46.016 623.354 45.3973 624.549 44.16C625.786 42.9227 626.405 41.28 626.405 39.232C626.405 37.2267 625.786 35.6053 624.549 34.368C623.354 33.088 621.541 32.448 619.109 32.448C617.274 32.448 615.76 33.088 614.565 34.368C613.413 35.648 612.837 37.3547 612.837 39.488C612.837 41.5787 613.413 43.2 614.565 44.352C615.717 45.4613 617.061 46.016 618.597 46.016ZM595.301 83.392C594.021 83.392 592.997 83.072 592.229 82.432C591.461 81.7493 591.077 80.7467 591.077 79.424C591.077 78.3147 591.461 77.4187 592.229 76.736C592.997 76.0533 594.021 75.712 595.301 75.712C596.282 75.712 597.093 76.0747 597.733 76.8C598.416 77.5253 598.757 78.3147 598.757 79.168C598.757 80.6187 598.394 81.6853 597.669 82.368C596.944 83.0507 596.154 83.392 595.301 83.392ZM633.957 95.936C633.53 95.936 633.082 95.936 632.613 95.936C632.186 95.936 631.738 95.936 631.269 95.936C630.501 95.936 629.797 95.68 629.157 95.168C628.517 94.656 628.197 93.5467 628.197 91.84C628.197 90.3467 628.602 89.3653 629.413 88.896C630.266 88.384 630.97 88.128 631.525 88.128C631.909 88.128 632.314 88.128 632.741 88.128C633.168 88.128 633.573 88.128 633.957 88.128C635.066 88.1707 635.898 88.64 636.453 89.536C637.008 90.3893 637.285 91.328 637.285 92.352C637.285 93.632 637.008 94.5493 636.453 95.104C635.898 95.6587 635.066 95.936 633.957 95.936Z" fill="black"/>
<path d="M655.038 89.28C654.697 86.6347 654.291 83.2213 653.822 79.04C653.353 74.816 652.862 70.2933 652.35 65.472C651.881 60.608 651.433 55.872 651.006 51.264C650.579 46.656 650.217 42.6027 649.918 39.104C649.662 35.6053 649.534 33.1307 649.534 31.68C649.534 29.0773 650.601 27.0293 652.734 25.536C654.91 24.0427 657.683 22.9547 661.054 22.272C664.467 21.5467 668.073 21.0773 671.87 20.864C675.71 20.6507 679.315 20.544 682.686 20.544C686.526 20.544 689.833 21.12 692.606 22.272C695.379 23.3813 697.513 25.0027 699.006 27.136C700.499 29.2693 701.246 31.8933 701.246 35.008C701.246 38.08 700.798 40.576 699.902 42.496C699.006 44.416 697.982 45.952 696.83 47.104C695.678 48.2133 694.654 49.1093 693.758 49.792C692.862 50.4747 692.414 51.136 692.414 51.776C692.414 52.0747 692.542 52.3307 692.798 52.544C693.054 52.7147 693.395 52.8427 693.822 52.928C697.79 53.696 701.139 54.9333 703.87 56.64C706.601 58.304 708.649 60.6933 710.014 63.808C711.422 66.88 712.126 70.8907 712.126 75.84C712.126 82.4107 710.483 87.8933 707.198 92.288C703.955 96.6827 699.539 99.9893 693.95 102.208C688.361 104.427 682.089 105.536 675.134 105.536C670.27 105.536 666.473 105.003 663.742 103.936C661.011 102.869 659.006 101.163 657.726 98.816C656.446 96.4267 655.55 93.248 655.038 89.28ZM680.382 28.672C676.158 28.672 673.001 29.2907 670.91 30.528C668.819 31.7653 667.411 33.728 666.686 36.416C666.003 39.0613 665.662 42.5173 665.662 46.784C665.662 48.064 665.833 49.1093 666.174 49.92C666.558 50.688 667.091 51.264 667.774 51.648C668.499 52.032 669.353 52.224 670.334 52.224C672.382 52.224 674.579 51.776 676.926 50.88C679.315 49.9413 681.577 48.7253 683.71 47.232C685.843 45.696 687.593 43.9893 688.958 42.112C690.323 40.2347 691.006 38.336 691.006 36.416C691.006 34.6667 690.601 33.2373 689.79 32.128C689.022 30.976 687.849 30.1227 686.27 29.568C684.734 28.9707 682.771 28.672 680.382 28.672ZM665.406 87.36C665.406 89.152 665.619 90.6667 666.046 91.904C666.473 93.1413 667.07 94.08 667.838 94.72C668.649 95.36 669.587 95.68 670.654 95.68C672.233 95.68 673.897 94.976 675.646 93.568C677.395 92.16 679.081 90.3253 680.702 88.064C682.366 85.8027 683.881 83.392 685.246 80.832C686.611 78.272 687.678 75.7973 688.446 73.408C689.257 70.976 689.662 68.9493 689.662 67.328C689.662 65.9627 689.427 64.7893 688.958 63.808C688.531 62.8267 687.913 62.016 687.102 61.376C686.291 60.736 685.331 60.2667 684.222 59.968C683.113 59.6267 681.875 59.456 680.51 59.456C676.926 59.456 674.025 60.416 671.806 62.336C669.587 64.256 667.966 67.2853 666.942 71.424C665.918 75.52 665.406 80.832 665.406 87.36ZM700.734 76.096C702.014 76.096 703.017 75.7333 703.742 75.008C704.467 74.24 704.83 73.1947 704.83 71.872C704.83 70.592 704.489 69.6107 703.806 68.928C703.166 68.2453 702.014 67.904 700.35 67.904C699.283 67.904 698.387 68.2453 697.662 68.928C696.979 69.568 696.638 70.6347 696.638 72.128C696.638 73.3227 697.001 74.2827 697.726 75.008C698.451 75.7333 699.454 76.096 700.734 76.096ZM697.918 89.408C699.155 89.408 700.201 88.9387 701.054 88C701.95 87.0613 702.398 85.8667 702.398 84.416C702.398 82.9227 701.971 81.8133 701.118 81.088C700.265 80.32 699.326 79.936 698.302 79.936C696.382 79.936 694.995 80.3413 694.142 81.152C693.331 81.9627 692.926 83.136 692.926 84.672C692.926 86.208 693.374 87.3813 694.27 88.192C695.166 89.0027 696.382 89.408 697.918 89.408ZM688.574 97.984C689.598 97.984 690.473 97.6 691.198 96.832C691.923 96.064 692.286 95.04 692.286 93.76C692.286 92.5227 691.945 91.5627 691.262 90.88C690.622 90.1547 689.726 89.792 688.574 89.792C687.038 89.792 685.907 90.1333 685.182 90.816C684.457 91.4987 684.094 92.608 684.094 94.144C684.094 95.296 684.435 96.2347 685.118 96.96C685.843 97.6427 686.995 97.984 688.574 97.984ZM665.278 24.384L657.47 25.792C656.147 20.7573 655.273 16.896 654.846 14.208C654.419 11.4773 654.505 9.59999 655.102 8.576C655.699 7.50933 656.873 6.976 658.622 6.976C660.03 6.976 661.118 7.46666 661.886 8.448C662.697 9.38666 663.337 11.1147 663.806 13.632C664.318 16.1493 664.809 19.7333 665.278 24.384ZM682.046 23.488L673.086 22.976C673.513 18.9653 673.939 15.872 674.366 13.696C674.835 11.52 675.433 10.0053 676.158 9.15199C676.883 8.29866 677.843 7.87199 679.038 7.87199C680.574 7.87199 681.619 8.36266 682.174 9.34399C682.771 10.2827 683.027 11.904 682.942 14.208C682.857 16.4693 682.558 19.5627 682.046 23.488ZM692.798 30.144L688.574 24.512C691.006 21.9947 693.097 19.904 694.846 18.24C696.638 16.576 698.153 15.3387 699.39 14.528C700.67 13.7173 701.758 13.312 702.654 13.312C703.337 13.312 703.934 13.4613 704.446 13.76C705.001 14.0587 705.427 14.4853 705.726 15.04C706.025 15.552 706.174 16.1707 706.174 16.896C706.174 18.2187 705.086 19.84 702.91 21.76C700.734 23.68 697.363 26.4747 692.798 30.144ZM688.702 27.84L682.686 26.304C682.857 25.4507 683.049 24.7467 683.262 24.192C683.475 23.5947 683.753 23.168 684.094 22.912C684.435 22.6133 684.862 22.464 685.374 22.464C686.526 22.464 687.443 22.6773 688.126 23.104C688.809 23.488 689.214 24.0853 689.342 24.896C689.47 25.664 689.257 26.6453 688.702 27.84ZM698.686 34.624C698.259 34.752 697.811 34.9013 697.342 35.072C696.873 35.2427 696.382 35.4347 695.87 35.648C694.974 35.9467 694.27 35.968 693.758 35.712C693.246 35.456 692.755 34.7947 692.286 33.728C692.03 33.1307 691.945 32.512 692.03 31.872C692.115 31.232 692.414 30.784 692.926 30.528C693.31 30.272 693.779 29.9947 694.334 29.696C694.889 29.3973 695.443 29.1627 695.998 28.992C696.425 28.8213 696.83 28.8 697.214 28.928C697.641 29.056 698.025 29.2907 698.366 29.632C698.75 29.9733 699.07 30.4 699.326 30.912C699.539 31.3813 699.667 31.872 699.71 32.384C699.795 32.8533 699.753 33.3013 699.582 33.728C699.411 34.112 699.113 34.4107 698.686 34.624ZM693.694 43.584L696.766 36.16C701.715 37.184 705.299 38.0587 707.518 38.784C709.737 39.5093 711.145 40.256 711.742 41.024C712.339 41.7493 712.638 42.624 712.638 43.648C712.638 45.2267 711.998 46.2507 710.718 46.72C709.438 47.1467 707.411 47.0827 704.638 46.528C701.865 45.9733 698.217 44.992 693.694 43.584ZM669.63 101.184C669.502 101.355 669.395 101.525 669.31 101.696C669.225 101.824 669.118 101.995 668.99 102.208C668.435 103.104 667.731 103.659 666.878 103.872C666.067 104.043 665.278 104.043 664.51 103.872C663.571 103.531 662.803 102.933 662.206 102.08C661.609 101.227 661.566 100.331 662.078 99.392C662.163 99.2213 662.249 99.0507 662.334 98.88C662.419 98.7093 662.505 98.5387 662.59 98.368C662.675 98.1973 662.761 98.0267 662.846 97.856C663.443 96.7467 664.275 96.128 665.342 96C666.451 95.872 667.411 96.064 668.222 96.576C668.99 97.0027 669.566 97.664 669.95 98.56C670.334 99.4133 670.227 100.288 669.63 101.184Z" fill="black"/>
<path d="M718.941 91.456C719.538 89.792 720.562 86.976 722.013 83.008C723.464 78.9973 725.128 74.4107 727.005 69.248C728.882 64.0427 730.76 58.8587 732.637 53.696C732.808 53.312 732.957 52.928 733.085 52.544C733.213 52.16 733.341 51.7973 733.469 51.456C733.597 51.072 733.725 50.688 733.853 50.304C734.066 49.792 734.258 49.28 734.429 48.768C734.642 48.2133 734.834 47.68 735.005 47.168C735.517 45.8027 736.008 44.48 736.477 43.2C736.946 41.8773 737.394 40.6187 737.821 39.424C737.992 39.04 738.141 38.6773 738.269 38.336C738.397 37.952 738.525 37.5893 738.653 37.248C738.781 36.864 738.909 36.5013 739.037 36.16C739.25 35.52 739.464 34.9227 739.677 34.368C739.933 33.7707 740.146 33.1947 740.317 32.64C741 30.848 741.533 29.4187 741.917 28.352C742.344 27.2427 742.578 26.6027 742.621 26.432C743.986 22.8907 746.034 20.2667 748.765 18.56C751.496 16.8107 754.61 15.9787 758.109 16.064C761.778 16.1067 764.936 17.0667 767.581 18.944C770.226 20.8213 771.89 23.6587 772.573 27.456C772.658 27.968 772.744 28.48 772.829 28.992C772.957 29.504 773.042 30.016 773.085 30.528C767.965 31.04 764.509 31.7227 762.717 32.576C760.925 33.3867 760.029 34.5387 760.029 36.032C760.029 37.8667 760.648 39.0613 761.885 39.616C763.165 40.128 764.893 40.256 767.069 40C769.288 39.744 771.805 39.36 774.621 38.848C774.877 40.128 775.133 41.408 775.389 42.688C775.645 43.968 775.858 45.248 776.029 46.528C772.061 47.04 769.266 47.7013 767.645 48.512C766.066 49.3227 765.277 50.5387 765.277 52.16C765.277 54.0373 765.896 55.232 767.133 55.744C768.37 56.256 769.928 56.384 771.805 56.128C773.682 55.8293 775.602 55.4027 777.565 54.848C778.418 59.1147 779.25 63.3813 780.061 67.648C780.872 71.9147 781.661 76.16 782.429 80.384C783.197 84.608 783.965 88.832 784.733 93.056C785.501 97.2373 786.226 101.397 786.909 105.536C787.378 107.883 787.122 109.696 786.141 110.976C785.16 112.299 783.965 112.96 782.557 112.96C781.49 112.96 780.402 112.555 779.293 111.744C778.184 110.933 777.309 109.675 776.669 107.968C773.213 98.4107 769.778 88.5547 766.365 78.4C762.952 68.2027 759.602 58.56 756.317 49.472C755.421 46.9547 754.525 45.1413 753.629 44.032C752.776 42.88 751.581 42.304 750.045 42.304C748.594 42.304 747.378 42.816 746.397 43.84C745.458 44.864 744.626 46.784 743.901 49.6C741.938 57.1947 739.997 64.9173 738.077 72.768C736.157 80.6187 734.258 88.1707 732.381 95.424C731.741 97.7707 730.738 99.4773 729.373 100.544C728.008 101.568 726.578 102.08 725.085 102.08C722.354 102.08 720.392 101.056 719.197 99.008C718.002 96.9173 717.917 94.4 718.941 91.456ZM731.869 71.872L734.301 63.808C736.306 63.7227 738.269 63.68 740.189 63.68C742.152 63.68 744.114 63.7227 746.077 63.808C749.021 63.936 751.218 64.2987 752.669 64.896C754.162 65.4933 754.909 66.752 754.909 68.672C754.909 70.5067 754.269 71.7653 752.989 72.448C751.709 73.088 749.234 73.3227 745.565 73.152C743.261 73.024 740.957 72.8533 738.653 72.64C736.392 72.384 734.13 72.128 731.869 71.872ZM733.149 88.384C731.186 88.128 729.608 87.5947 728.413 86.784C727.218 85.9733 726.621 84.928 726.621 83.648C726.621 81.6427 727.389 80.384 728.925 79.872C730.504 79.36 732.381 79.2107 734.557 79.424C740.146 79.8507 745.992 80.3627 752.093 80.96C758.237 81.5147 764.338 82.112 770.397 82.752L772.957 92.48C765.789 91.84 758.792 91.1787 751.965 90.496C745.181 89.7707 738.909 89.0667 733.149 88.384ZM737.245 44.992C734.386 43.7973 732.082 42.752 730.333 41.856C728.626 40.9173 727.389 40.0213 726.621 39.168C725.853 38.3147 725.469 37.3973 725.469 36.416C725.469 34.4107 726.194 33.1947 727.645 32.768C729.096 32.2987 730.994 32.384 733.341 33.024C735.73 33.6213 738.248 34.496 740.893 35.648L737.245 44.992ZM732.765 59.84C729.394 58.9013 726.706 58.0693 724.701 57.344C722.738 56.6187 721.33 55.8933 720.477 55.168C719.624 54.4 719.197 53.5253 719.197 52.544C719.197 50.496 719.922 49.2587 721.373 48.832C722.824 48.3627 724.744 48.4267 727.133 49.024C729.565 49.5787 732.21 50.368 735.069 51.392L732.765 59.84ZM768.733 72.512L766.813 62.912C768.989 62.528 770.738 62.3573 772.061 62.4C773.426 62.4 774.408 62.8693 775.005 63.808C775.602 64.704 775.901 66.2827 775.901 68.544C775.901 70.1227 775.304 71.1253 774.109 71.552C772.914 71.9787 771.122 72.2987 768.733 72.512ZM773.341 92.992L771.421 82.752C773.64 82.2827 775.41 82.0907 776.733 82.176C778.056 82.2613 779.016 82.816 779.613 83.84C780.21 84.864 780.509 86.5493 780.509 88.896C780.509 90.6027 779.912 91.6907 778.717 92.16C777.522 92.5867 775.73 92.864 773.341 92.992Z" fill="black"/>
</svg>
