<svg width="309" height="128" viewBox="0 0 309 128" fill="none" xmlns="http://www.w3.org/2000/svg">
<path d="M50.8491 88.5855C51.6618 87.3567 52.0682 86.2097 52.0682 85.1448C52.0682 84.0798 51.7702 83.2332 51.1742 82.6052C50.5782 81.9771 49.7926 81.6631 48.8173 81.6631C47.842 81.6631 47.0564 81.9088 46.4604 82.4004C45.8644 82.8646 45.5664 83.6155 45.5664 84.6532C45.5664 85.6636 46.2708 87.4932 47.6795 90.142C49.0882 92.7909 49.9822 94.4976 50.3615 95.2622C51.3909 97.3376 51.9056 99.3447 51.9056 101.283C51.9056 103.714 51.0252 105.694 49.2643 107.223C47.5305 108.725 45.4716 109.476 43.0876 109.476C40.7307 109.476 38.875 108.738 37.5205 107.264C36.1659 105.762 35.4887 104.014 35.4887 102.021C35.4887 98.3343 37.7507 95.2895 42.2749 92.8864C40.4327 89.2272 39.5116 86.674 39.5116 85.2267C39.5116 83.2059 40.3108 81.4992 41.9092 80.1065C43.5346 78.6865 45.5122 77.9765 47.842 77.9765C50.1989 77.9765 52.0004 78.5773 53.2466 79.7788C54.4928 80.9804 55.1159 82.5096 55.1159 84.3665C55.1159 85.5953 54.7095 87.0017 53.8968 88.5855H50.8491ZM40.2024 104.56C40.9339 105.352 41.8143 105.748 42.8438 105.748C43.9003 105.748 44.713 105.448 45.282 104.847C45.8779 104.219 46.1759 103.304 46.1759 102.103C46.1759 101.01 45.756 99.6723 44.9162 98.0885C44.8079 97.8701 44.6047 97.4741 44.3067 96.9006C44.0087 96.2999 43.792 95.8766 43.6565 95.6308C40.6224 97.2147 39.1053 99.2081 39.1053 101.611C39.1053 102.84 39.471 103.823 40.2024 104.56Z" fill="white"/>
<path d="M73.1291 109.435C70.6367 109.435 68.9842 108.561 68.1715 106.813C66.7628 108.588 64.9477 109.476 62.7263 109.476C60.5319 109.476 58.6762 108.725 57.1591 107.223C55.6691 105.721 54.9241 103.741 54.9241 101.283C54.9241 97.7062 55.9671 94.8526 58.0531 92.7226C60.1391 90.5926 62.7804 89.5276 65.9771 89.5276C66.0584 89.5276 66.1397 89.5276 66.221 89.5276C67.5755 89.5276 68.8217 89.7597 69.9595 90.224C70.6909 89.7597 71.5714 89.5276 72.6008 89.5276C73.6573 89.5276 74.4159 89.6641 74.8764 89.9372C74.6326 91.958 74.3753 93.9514 74.1044 95.9176C73.8335 97.8564 73.6438 99.2354 73.5354 100.055C73.2916 101.912 73.1697 103.25 73.1697 104.069C73.1697 105.161 73.6032 105.707 74.4701 105.707C75.1473 105.707 75.8652 105.257 76.6238 104.356C77.3823 103.427 78.046 101.98 78.615 100.014C79.4006 100.724 79.9424 101.516 80.2404 102.389C79.4548 104.984 78.3982 106.813 77.0708 107.878C75.7433 108.916 74.4294 109.435 73.1291 109.435ZM66.5867 92.7226C64.8529 92.7226 63.4712 93.3916 62.4418 94.7297C61.4394 96.0405 60.8435 98.0066 60.6538 100.628C60.6267 100.874 60.6132 101.106 60.6132 101.324C60.6132 102.663 60.9247 103.728 61.5478 104.519C62.198 105.311 63.0243 105.707 64.0266 105.707C65.7333 105.707 67.0201 104.492 67.887 102.062L68.8623 93.2141C68.0767 92.8864 67.3181 92.7226 66.5867 92.7226Z" fill="white"/>
<path d="M88.7679 109.23L90.3121 95.6308C90.3121 94.8662 90.1225 94.2382 89.7432 93.7466C89.391 93.2278 88.7544 92.9684 87.8333 92.9684C86.9122 92.9684 86.1537 93.4189 85.5577 94.3201C84.9617 95.1939 84.5824 96.1224 84.4199 97.1054C83.4717 103.905 82.9434 107.947 82.8351 109.23H77.3898L79.6248 89.9782C80.7626 89.6778 81.6295 89.5276 82.2255 89.5276C83.9322 89.5276 84.8669 90.1011 85.0294 91.248C86.3569 90.1011 87.8062 89.5276 89.3775 89.5276C92.52 89.5276 94.5247 90.4697 95.3916 92.3539C96.7191 90.4424 98.6154 89.4866 101.081 89.4866C102.896 89.4866 104.332 89.9645 105.388 90.9203C106.445 91.8487 106.973 93.023 106.973 94.443C106.973 94.8526 106.892 95.5762 106.729 96.6139C106.106 100.71 105.794 103.113 105.794 103.823C105.794 105.107 106.214 105.748 107.054 105.748C107.759 105.748 108.504 105.284 109.289 104.356C110.102 103.4 110.752 101.939 111.24 99.9727C112.161 100.956 112.716 101.734 112.906 102.308C111.497 107.059 109.005 109.435 105.429 109.435C103.749 109.435 102.503 108.916 101.69 107.878C100.877 106.841 100.471 105.748 100.471 104.601L101.446 95.5489C101.446 94.8116 101.257 94.1972 100.877 93.7057C100.498 93.2141 99.8887 92.9684 99.0489 92.9684C98.2361 92.9684 97.5182 93.2824 96.8952 93.9105C96.2721 94.5385 95.8386 95.3441 95.5948 96.3272C94.7821 103.263 94.2538 107.564 94.01 109.23H88.7679Z" fill="white"/>
<path d="M121.875 89.4866C123.825 89.4866 125.505 90.2922 126.913 91.9034C128.322 93.5145 129.027 95.3987 129.027 97.556C129.027 97.8564 129.013 98.1704 128.986 98.4981C128.688 102.075 127.496 104.806 125.41 106.69C123.324 108.547 120.601 109.476 117.242 109.476C115.888 109.421 114.709 109.175 113.707 108.738C112.704 108.302 111.959 107.755 111.472 107.1C110.551 105.898 110.09 104.833 110.09 103.905C110.09 102.949 110.226 101.42 110.496 99.3173C111.065 95.0028 111.878 88.0257 112.935 78.3862C113.504 78.1677 114.262 78.0585 115.21 78.0585C117.378 78.0585 118.461 78.6865 118.461 79.9427L117.08 90.8384C118.353 89.9372 119.951 89.4866 121.875 89.4866ZM115.576 103.618C115.576 104.246 115.806 104.779 116.267 105.216C116.754 105.625 117.418 105.83 118.258 105.83C119.64 105.83 120.777 105.188 121.671 103.905C122.755 102.348 123.297 100.328 123.297 97.8427C123.297 96.6412 123.026 95.5762 122.484 94.6478C121.942 93.7193 121.103 93.2551 119.965 93.2551C118.421 93.2551 117.242 94.1835 116.429 96.0404L116.104 98.4981C115.752 101.256 115.576 102.963 115.576 103.618Z" fill="white"/>
<path d="M148.846 109.435C146.353 109.435 144.701 108.561 143.888 106.813C142.479 108.588 140.664 109.476 138.443 109.476C136.248 109.476 134.393 108.725 132.876 107.223C131.386 105.721 130.641 103.741 130.641 101.283C130.641 97.7062 131.684 94.8526 133.77 92.7226C135.856 90.5926 138.497 89.5276 141.694 89.5276C141.775 89.5276 141.856 89.5276 141.937 89.5276C143.292 89.5276 144.538 89.7597 145.676 90.224C146.407 89.7597 147.288 89.5276 148.317 89.5276C149.374 89.5276 150.132 89.6641 150.593 89.9372C150.349 91.958 150.092 93.9514 149.821 95.9176C149.55 97.8564 149.36 99.2354 149.252 100.055C149.008 101.912 148.886 103.25 148.886 104.069C148.886 105.161 149.32 105.707 150.186 105.707C150.864 105.707 151.582 105.257 152.34 104.356C153.099 103.427 153.762 101.98 154.331 100.014C155.117 100.724 155.659 101.516 155.957 102.389C155.171 104.984 154.115 106.813 152.787 107.878C151.46 108.916 150.146 109.435 148.846 109.435ZM142.303 92.7226C140.569 92.7226 139.188 93.3916 138.158 94.7297C137.156 96.0405 136.56 98.0066 136.37 100.628C136.343 100.874 136.33 101.106 136.33 101.324C136.33 102.663 136.641 103.728 137.264 104.519C137.914 105.311 138.741 105.707 139.743 105.707C141.45 105.707 142.737 104.492 143.603 102.062L144.579 93.2141C143.793 92.8864 143.035 92.7226 142.303 92.7226Z" fill="white"/>
<path d="M174.023 109.476C169.824 109.476 166.735 108.397 164.758 106.24C162.807 104.083 161.832 101.243 161.832 97.7199C161.832 94.1699 162.428 90.9476 163.62 88.053C164.839 85.1311 166.641 82.7417 169.024 80.8848C171.408 79.0006 173.982 78.0585 176.745 78.0585C179.536 78.0585 181.716 78.7411 183.288 80.1065C184.886 81.4446 185.685 83.2605 185.685 85.5544C185.685 87.8209 184.981 89.7051 183.572 91.207C182.191 92.7089 180.565 93.4599 178.696 93.4599C176.827 93.4599 175.377 93.0503 174.348 92.2311C173.318 91.3845 172.804 90.497 172.804 89.5686C172.804 88.6128 173.169 87.8755 173.901 87.3567C174.659 86.8105 175.757 86.5374 177.192 86.5374C176.84 86.8924 176.664 87.3703 176.664 87.9711C176.664 88.5445 176.84 89.0497 177.192 89.4866C177.545 89.9236 178.086 90.142 178.818 90.142C179.549 90.142 180.281 89.7597 181.012 88.9951C181.744 88.2032 182.109 87.1655 182.109 85.8821C182.109 84.5986 181.716 83.5746 180.931 82.81C180.172 82.0454 179.089 81.6631 177.68 81.6631C175.838 81.6631 174.158 82.414 172.641 83.9159C171.151 85.4178 170.013 87.3294 169.228 89.6505C168.442 91.9716 168.049 94.4157 168.049 96.9826C168.049 99.1945 168.523 101.147 169.471 102.84C169.959 103.714 170.677 104.41 171.625 104.929C172.6 105.448 173.738 105.707 175.039 105.707C177.26 105.707 179.4 104.997 181.459 103.577C183.518 102.13 185.252 100.273 186.661 98.0066L188.042 100.505C186.444 103.127 184.439 105.284 182.028 106.977C179.617 108.643 176.949 109.476 174.023 109.476Z" fill="#FFD400"/>
<path d="M203.451 89.9372C202.34 98.7849 201.785 103.495 201.785 104.069C201.785 105.161 202.178 105.707 202.964 105.707C203.668 105.707 204.426 105.229 205.239 104.274C206.079 103.291 206.743 101.83 207.23 99.8908C208.124 100.874 208.666 101.638 208.856 102.185C208.233 104.833 207.244 106.704 205.889 107.796C204.535 108.889 203.14 109.435 201.704 109.435C199.347 109.435 197.762 108.52 196.949 106.69C195.541 108.52 193.658 109.435 191.301 109.435C189.35 109.435 187.847 108.943 186.79 107.96C185.734 106.977 185.206 105.694 185.206 104.11C185.206 103.728 185.273 103.058 185.409 102.103C186.032 97.0235 186.506 92.982 186.831 89.9782C187.671 89.6778 188.443 89.5276 189.147 89.5276C189.852 89.5276 190.38 89.5549 190.732 89.6095C191.084 89.6641 191.423 89.8689 191.748 90.224C192.073 90.5789 192.236 91.0841 192.236 91.7395L190.895 102.185C190.84 102.512 190.813 102.813 190.813 103.086C190.813 104.697 191.545 105.502 193.008 105.502C194.362 105.502 195.486 104.833 196.38 103.495C196.38 103.195 196.408 102.717 196.462 102.062L197.803 91.1661C197.992 90.7018 198.399 90.3195 199.022 90.0191C199.645 89.6915 200.417 89.5276 201.338 89.5276C202.286 89.5276 202.991 89.6641 203.451 89.9372Z" fill="#FFD400"/>
<path d="M217.911 94.8935C217.911 93.692 217.356 93.0912 216.245 93.0912C215.161 93.0912 214.294 93.8012 213.644 95.2212C216.57 97.5424 218.033 100.15 218.033 103.045C218.033 105.147 217.45 106.745 216.286 107.837C215.121 108.93 213.658 109.476 211.897 109.476C210.136 109.476 208.849 108.93 208.036 107.837C207.224 106.718 206.817 105.311 206.817 103.618C206.817 103.099 206.831 102.717 206.858 102.471L208.28 89.9782C209.255 89.6778 210.244 89.5276 211.247 89.5276C212.899 89.5276 213.725 90.142 213.725 91.3709V91.4528C214.809 90.1693 216.191 89.5276 217.87 89.5276C219.089 89.5276 220.038 89.8143 220.715 90.3878C221.392 90.9339 221.731 91.6712 221.731 92.5997C221.731 93.5282 221.379 94.2928 220.674 94.8935C219.997 95.467 219.103 95.7537 217.992 95.7537C217.938 95.7537 217.884 95.7537 217.83 95.7537C217.884 95.4533 217.911 95.1666 217.911 94.8935ZM215.392 102.84C215.392 101.256 214.579 99.6723 212.953 98.0885C212.466 102.021 212.222 104.001 212.222 104.028C212.222 105.175 212.682 105.748 213.604 105.748C214.796 105.748 215.392 104.779 215.392 102.84Z" fill="#FFD400"/>
<path d="M240.753 109.435C238.26 109.435 236.608 108.561 235.795 106.813C234.387 108.588 232.571 109.476 230.35 109.476C228.156 109.476 226.3 108.725 224.783 107.223C223.293 105.721 222.548 103.741 222.548 101.283C222.548 97.7062 223.591 94.8526 225.677 92.7226C227.763 90.5926 230.404 89.5276 233.601 89.5276C233.682 89.5276 233.763 89.5276 233.845 89.5276C235.199 89.5276 236.445 89.7597 237.583 90.224C238.315 89.7597 239.195 89.5276 240.225 89.5276C241.281 89.5276 242.04 89.6641 242.5 89.9372C242.256 91.958 241.999 93.9514 241.728 95.9176C241.457 97.8564 241.268 99.2354 241.159 100.055C240.915 101.912 240.794 103.25 240.794 104.069C240.794 105.161 241.227 105.707 242.094 105.707C242.771 105.707 243.489 105.257 244.248 104.356C245.006 103.427 245.67 101.98 246.239 100.014C247.024 100.724 247.566 101.516 247.864 102.389C247.079 104.984 246.022 106.813 244.695 107.878C243.367 108.916 242.053 109.435 240.753 109.435ZM234.21 92.7226C232.477 92.7226 231.095 93.3916 230.066 94.7297C229.063 96.0405 228.467 98.0066 228.278 100.628C228.25 100.874 228.237 101.106 228.237 101.324C228.237 102.663 228.548 103.728 229.172 104.519C229.822 105.311 230.648 105.707 231.65 105.707C233.357 105.707 234.644 104.492 235.511 102.062L236.486 93.2141C235.7 92.8864 234.942 92.7226 234.21 92.7226Z" fill="#FFD400"/>
<path fill-rule="evenodd" clip-rule="evenodd" d="M125.453 0.00145416C120.394 -0.0607336 115.512 1.87384 111.849 5.39184C108.991 8.13267 107.029 11.6899 106.229 15.5833C105.429 19.4768 105.826 23.5237 107.369 27.1832H113.083C111.214 24.1801 110.508 20.5879 111.101 17.0933C111.693 13.5987 113.543 10.4467 116.295 8.23974C119.048 6.0328 122.511 4.92567 126.022 5.12996C129.533 5.33425 132.847 6.83563 135.329 9.34716L139.581 13.6327C140.057 14.1127 140.703 14.3823 141.376 14.3823C142.05 14.3823 142.695 14.1127 143.172 13.6327L147.152 9.62109C149.628 7.11567 152.925 5.60354 156.426 5.3665C159.927 5.12946 163.394 6.18369 166.181 8.33271C168.968 10.4817 170.885 13.5789 171.574 17.0471C172.264 20.5152 171.679 24.1178 169.928 27.1832H175.551C177.211 22.9697 177.377 18.3081 176.023 13.985C174.669 9.66187 171.877 5.9419 168.118 3.45273C164.359 0.963559 159.864 -0.142437 155.39 0.321353C150.916 0.785143 146.738 2.79033 143.56 5.99858L141.376 8.20024L138.923 5.72465C135.346 2.11766 130.512 0.0636419 125.453 0.00145416ZM165.42 39.9836H158.41L141.389 58.0168L124.591 39.9529C124.383 39.9734 124.172 39.9836 123.959 39.9836H117.657L139.52 63.4954C139.756 63.7497 140.041 63.9527 140.358 64.092C140.675 64.2313 141.017 64.3038 141.363 64.3053C141.708 64.3067 142.051 64.237 142.369 64.1004C142.687 63.9637 142.974 63.7631 143.212 63.5107L165.42 39.9836Z" fill="#FFD400"/>
<path d="M133.485 19.6387C133.281 19.229 132.972 18.8819 132.59 18.6337C132.208 18.3856 131.766 18.2454 131.312 18.2279C130.858 18.2104 130.407 18.3161 130.007 18.5341C129.607 18.7521 129.272 19.0743 129.038 19.4671L122.155 31.0233H107.516C106.843 31.0233 106.197 31.2931 105.72 31.7732C105.244 32.2533 104.976 32.9044 104.976 33.5834C104.976 34.2624 105.244 34.9136 105.72 35.3937C106.197 35.8738 106.843 36.1435 107.516 36.1435H123.598C124.036 36.1434 124.467 36.029 124.848 35.8114C125.23 35.5939 125.549 35.2805 125.774 34.9019L131.014 26.1003L139.106 42.408C139.301 42.8011 139.593 43.1369 139.954 43.3832C140.315 43.6295 140.733 43.7779 141.168 43.8142C141.602 43.8504 142.039 43.7733 142.435 43.5903C142.831 43.4072 143.174 43.1244 143.431 42.769L151.992 30.9005L157.529 35.5496C157.985 35.9331 158.56 36.1432 159.154 36.1435H174.393C175.067 36.1435 175.713 35.8738 176.189 35.3937C176.665 34.9136 176.933 34.2624 176.933 33.5834C176.933 32.9044 176.665 32.2533 176.189 31.7732C175.713 31.2931 175.067 31.0233 174.393 31.0233H160.074L153.161 25.2171C152.894 24.9927 152.584 24.826 152.25 24.7273C151.917 24.6285 151.566 24.5999 151.221 24.6431C150.876 24.6863 150.544 24.8004 150.244 24.9784C149.945 25.1564 149.685 25.3945 149.48 25.6779L141.78 36.3534L133.485 19.6387Z" fill="#FFD400"/>
<path fill-rule="evenodd" clip-rule="evenodd" d="M281.387 102.811C281.004 103.059 280.695 103.406 280.491 103.816L272.196 120.531L264.496 109.855C264.291 109.572 264.031 109.334 263.732 109.156C263.432 108.978 263.1 108.863 262.755 108.82C262.41 108.777 262.06 108.806 261.726 108.904C261.393 109.003 261.083 109.17 260.816 109.394L254.915 114.35L253.903 115.2V120.321H254.822C255.416 120.32 255.991 120.11 256.447 119.727L261.984 115.078L270.546 126.946C270.802 127.301 271.145 127.584 271.541 127.767C271.938 127.95 272.374 128.028 272.809 127.991C273.243 127.955 273.661 127.807 274.022 127.56C274.384 127.314 274.676 126.978 274.871 126.585L282.962 110.277L288.202 119.079C288.428 119.458 288.747 119.771 289.128 119.989C289.51 120.206 289.94 120.321 290.379 120.321H306.46C307.134 120.321 307.78 120.051 308.256 119.571C308.732 119.091 309 118.439 309 117.761C309 117.082 308.732 116.43 308.256 115.95C307.78 115.47 307.134 115.2 306.46 115.2H291.821L284.938 103.644C284.704 103.251 284.37 102.929 283.97 102.711C283.57 102.493 283.119 102.387 282.665 102.405C282.21 102.423 281.769 102.563 281.387 102.811Z" fill="#FFD400"/>
<path d="M2.53975 120.321C1.86617 120.321 1.22016 120.051 0.743862 119.571C0.267566 119.091 0 118.439 0 117.761C0 117.082 0.267566 116.43 0.743862 115.95C1.22016 115.47 1.86617 115.2 2.53975 115.2H252.946H253.903V120.321H252.946H2.53975Z" fill="#FFD400"/>
</svg>
